<svg viewBox="0 0 235.3 217.4" xmlns="http://www.w3.org/2000/svg"><path d="M212.5 128.2v-20.8c0-1.4-1.2-2.6-2.6-2.6h-2.6v25.9h2.6c1.4.1 2.6-1.1 2.6-2.5zM22.3 107.5v20.8c0 1.4 1.2 2.6 2.6 2.6h2.6V105h-2.6c-1.4-.1-2.6 1-2.6 2.5zM179 141.2h10.4c1.4 0 2.6-1.2 2.6-2.6V97.1c0-1.4-1.2-2.6-2.6-2.6H179c-1.4 0-2.6 1.2-2.6 2.6v41.5c0 1.4 1.1 2.6 2.6 2.6zm-136.2-2.6c0 1.4 1.2 2.6 2.6 2.6h10.4c1.4 0 2.6-1.2 2.6-2.6V97.1c0-1.4-1.2-2.6-2.6-2.6H45.4c-1.4 0-2.6 1.2-2.6 2.6z" fill="#aee8ff"/><path d="M127.7 194.9c0 8.5 6.8 15.4 15.3 15.4 5.5 0 10.6-2.9 13.4-7.7h12.4c15.6 0 28.2-12.6 28.2-28.2 0-4.3-3.5-7.7-7.7-7.7-4.3 0-7.7 3.5-7.7 7.7 0 7.1-5.7 12.8-12.8 12.8h-12.4c-4.2-7.4-13.6-9.9-21-5.7-4.8 2.8-7.8 7.9-7.7 13.4zm82.2-105.3h-4.4c-2.6-5.4-7.8-9.2-13.7-10-1.2-41.1-35.5-73.4-76.6-72.1-39.4 1.1-71 32.7-72.2 72-6 .8-11.1 4.6-13.7 10h-4.4c-9.9 0-18 8.1-18 18v20.6c0 9.9 8.1 18 18 18h4.4c3 6.3 9.3 10.3 16.2 10.3h10.3c9.9 0 18-8.1 18-18V97.3c0-8.9-6.5-16.4-15.3-17.7 1.2-32.6 28.6-58 61.2-56.7 30.8 1.2 55.6 25.9 56.7 56.7-8.8 1.3-15.3 8.8-15.3 17.7v41.1c0 9.9 8.1 18 18 18h10.3c6.9 0 13.2-4 16.2-10.3h4.4c9.9 0 18-8.1 18-18v-20.6c-.2-9.9-8.2-17.9-18.1-17.9zM22.3 128.1v-20.6c0-1.4 1.2-2.6 2.6-2.6h2.6v25.7h-2.6c-1.4.1-2.6-1.1-2.6-2.5zm36 10.3c0 1.4-1.2 2.6-2.6 2.6H45.4c-1.4 0-2.6-1.2-2.6-2.6V97.3c0-1.4 1.2-2.6 2.6-2.6h10.3c1.4 0 2.6 1.2 2.6 2.6zm131 2.6H179c-1.4 0-2.6-1.2-2.6-2.6V97.3c0-1.4 1.2-2.6 2.6-2.6h10.3c1.4 0 2.6 1.2 2.6 2.6v41.1c0 1.4-1.2 2.5-2.6 2.6zm23.1-12.9c0 1.4-1.2 2.6-2.6 2.6h-2.6V105h2.6c1.4 0 2.6 1.2 2.6 2.6z" fill="#03a2e0"/><path d="M96.8 94.7h30.8c4.3 0 7.7-3.5 7.7-7.7s-3.5-7.7-7.7-7.7H96.8c-4.3 0-7.7 3.5-7.7 7.7s3.5 7.7 7.7 7.7zm0 30.8h41.1c4.3 0 7.7-3.5 7.7-7.7s-3.5-7.7-7.7-7.7H96.8c-4.3 0-7.7 3.5-7.7 7.7s3.5 7.7 7.7 7.7z" fill="#aee8ff"/></svg>